:SAMPLES-PER-SECOND 30
:FULLY-SPECIFIED
:DEGREES
1
root  16.1564 39.9476 3.9825 -63.2473 -88.6975 61.1828
RightUpLeg  -0.929064 -8.28598 -4.85795
RightLeg  5.40429 7.19839 0.107742
RightFoot  -2.79747 -0.127515 1.49565
RightToes  1.33877e-009 0 -3.6325e-017
Spine  7.6462 -0.648243 2.4769
Spine1  -4.38307 -0.107835 -2.68072
HEad  -8.1947 -5.06927 -3.61526
LeftShoulder1  0.217078 0.566607 0.788986
LeftArm  -22.466 4.75924 -14.0357
LeftForeArm  -5.83824 1.27224 3.40003
LeftHand  0.0744098 7.4878 5.91017
RightShoulder  0.107216 -1.63995 -2.85655
RightArm  -8.53628 -0.640353 8.50613
RightForeArm  -2.61784 0.424977 -2.39288
RightHand  -0.11516 5.97058 -1.50606
LeftUpLeg  -1.66895 6.5251 3.86866
LeftLeg  3.93209 -4.11974 0.143606
LeftFoot  -0.847068 0.0883331 -0.985483
LeftToes  -1.45701e-009 4.75788e-011 -4.21586e-011
2
root  16.1498 39.9476 3.98103 -63.4001 -88.715 61.3263
RightUpLeg  -0.913 -8.28501 -4.84961
RightLeg  5.41781 7.24056 0.119575
RightFoot  -2.81912 -0.126172 1.47481
RightToes  1.33877e-009 0 -3.6325e-017
Spine  7.53299 -0.644248 2.50327
Spine1  -4.23416 -0.0981585 -2.70206
HEad  -8.20169 -5.09473 -3.68692
LeftShoulder1  0.217078 0.571752 0.827959
LeftArm  -22.5242 4.76524 -14.1525
LeftForeArm  -5.83018 1.2674 3.43848
LeftHand  0.0742848 7.61526 5.61042
RightShoulder  0.107212 -1.66194 -2.85056
RightArm  -8.6974 -0.640739 8.60221
RightForeArm  -2.50612 0.4331 -2.45194
RightHand  -0.105307 5.99218 -1.40398
LeftUpLeg  -1.66916 6.51034 3.8671
LeftLeg  3.96401 -4.08283 0.184975
LeftFoot  -0.909351 0.0913838 -1.0329
LeftToes  -1.45701e-009 4.75788e-011 -4.21586e-011
3
root  16.1409 39.946 3.97514 -63.8384 -88.7609 61.7876
RightUpLeg  -0.951858 -8.23137 -4.77349
RightLeg  5.44839 7.20414 0.0984517
RightFoot  -2.79116 -0.117021 1.33282
RightToes  1.33877e-009 0 -3.6325e-017
Spine  7.45188 -0.619983 2.51861
Spine1  -4.18782 -0.0792416 -2.66276
HEad  -8.26208 -5.01337 -3.48629
LeftShoulder1  0.217078 0.581058 0.81318
LeftArm  -22.533 4.77097 -14.222
LeftForeArm  -5.68303 1.27953 3.46878
LeftHand  0.0418401 7.21805 4.75361
RightShoulder  0.107233 -1.62086 -2.93331
RightArm  -8.69915 -0.804017 8.73074
RightForeArm  -2.48498 0.515365 -2.46293
RightHand  -0.11616 5.96185 -1.51739
LeftUpLeg  -1.69952 6.58852 3.94685
LeftLeg  4.01955 -4.116 0.118985
LeftFoot  -0.92691 0.0861282 -0.951214
LeftToes  -1.45701e-009 4.75788e-011 -4.21586e-011
4
root  16.1387 39.9399 3.97566 -60.9908 -88.7186 58.9126
RightUpLeg  -0.932026 -8.27506 -4.80489
RightLeg  5.51446 7.15804 0.127793
RightFoot  -2.88045 -0.119602 1.37287
RightToes  1.33877e-009 0 -3.6325e-017
Spine  7.43707 -0.67166 2.48287
Spine1  -4.1173 -0.138212 -2.60332
HEad  -8.38181 -5.00351 -3.45862
LeftShoulder1  0.217078 0.664907 0.794771
LeftArm  -22.5127 4.69189 -14.3099
LeftForeArm  -5.66913 1.39273 3.46727
LeftHand  0.0321462 6.86793 4.95995
RightShoulder  0.10723 -1.63981 -2.92954
RightArm  -8.63394 -0.735494 8.80582
RightForeArm  -2.7787 0.412513 -2.4298
RightHand  -0.136711 5.82911 -1.73897
LeftUpLeg  -1.78107 6.53085 3.91213
LeftLeg  4.22605 -4.11187 0.143907
LeftFoot  -1.06476 0.0873961 -0.97092
LeftToes  -1.45701e-009 4.75788e-011 -4.21586e-011
5
root  16.1248 39.9368 3.97168 -66.0458 -88.8291 63.9523
RightUpLeg  -0.942053 -8.20316 -4.72184
RightLeg  5.55138 7.21745 0.0988029
RightFoot  -2.89467 -0.117902 1.34649
RightToes  1.33877e-009 0 -3.6325e-017
Spine  7.28652 -0.611078 2.44639
Spine1  -3.90019 -0.0947145 -2.47252
HEad  -8.48129 -4.91632 -3.47881
LeftShoulder1  0.217638 0.727688 0.712934
LeftArm  -22.5523 4.6608 -14.3334
LeftForeArm  -5.7638 1.4174 3.48745
LeftHand  0.0450325 7.1333 5.0079
RightShoulder  0.10724 -1.63684 -2.98139
RightArm  -8.73002 -0.756043 8.87378
RightForeArm  -2.43879 0.487064 -2.47204
RightHand  -0.101171 5.85766 -1.37094
LeftUpLeg  -1.76023 6.59774 4.00772
LeftLeg  4.32505 -4.09306 0.112565
LeftFoot  -1.13385 0.0904911 -1.01902
LeftToes  -1.45701e-009 4.75788e-011 -4.21586e-011
6
root  16.1129 39.9369 3.97214 -67.8393 -88.8213 65.7309
RightUpLeg  -0.911105 -8.21583 -4.75166
RightLeg  5.54995 7.28194 0.103221
RightFoot  -2.91145 -0.120951 1.39381
RightToes  1.33877e-009 0 -3.6325e-017
Spine  7.19331 -0.625396 2.38902
Spine1  -3.77941 -0.111759 -2.46598
HEad  -8.54497 -4.7595 -3.42532
LeftShoulder1  0.216031 0.732921 0.746557
LeftArm  -22.4567 4.75702 -14.3122
LeftForeArm  -6.06505 1.42924 3.452
LeftHand  0.0432876 6.98734 4.91483
RightShoulder  0.10722 -1.65035 -2.88362
RightArm  -8.66649 -0.626322 8.84821
RightForeArm  -2.40984 0.389543 -2.45
RightHand  -0.105614 5.89033 -1.41509
LeftUpLeg  -1.76855 6.59551 3.97416
LeftLeg  4.42556 -4.01471 0.108686
LeftFoot  -1.15595 0.0743616 -0.768339
LeftToes  -1.45701e-009 4.75788e-011 -4.21586e-011
7
root  16.0923 39.9363 3.97557 -69.1509 -88.8329 67.0144
RightUpLeg  -0.844981 -8.22893 -4.76748
RightLeg  5.54713 7.30821 0.107295
RightFoot  -2.95849 -0.124968 1.45612
RightToes  1.33877e-009 0 -3.6325e-017
Spine  7.0165 -0.631549 2.31769
Spine1  -3.52138 -0.135739 -2.34351
HEad  -8.47689 -4.60821 -3.53434
LeftShoulder1  0.205239 0.870978 0.744272
LeftArm  -22.5139 4.67789 -14.4
LeftForeArm  -5.94987 1.50872 3.49201
LeftHand  0.0350763 7.04548 4.74055
RightShoulder  0.107233 -1.68444 -2.97022
RightArm  -8.75565 -0.539282 8.93335
RightForeArm  -2.37654 0.32878 -2.47789
RightHand  -0.106942 5.63699 -1.44711
LeftUpLeg  -1.69287 6.58519 3.97246
LeftLeg  4.40839 -3.99781 0.136038
LeftFoot  -1.22193 0.0801525 -0.85834
LeftToes  -1.45701e-009 4.75788e-011 -4.21586e-011
8
root  16.0758 39.9404 3.97594 -71.4071 -88.8399 69.2643
RightUpLeg  -0.825592 -8.20917 -4.77088
RightLeg  5.56279 7.34314 0.0877413
RightFoot  -2.96549 -0.123788 1.43781
RightToes  1.33877e-009 0 -3.6325e-017
Spine  6.98215 -0.618956 2.3119
Spine1  -3.48799 -0.124538 -2.33796
HEad  -8.20317 -4.77005 -3.89877
LeftShoulder1  0.202409 0.943297 0.655901
LeftArm  -22.6312 4.56728 -14.3666
LeftForeArm  -5.84565 1.5654 3.55969
LeftHand  0.0274018 6.79905 4.7683
RightShoulder  0.107242 -1.71167 -3.03232
RightArm  -8.71517 -0.589728 8.94596
RightForeArm  -2.37324 0.317697 -2.47404
RightHand  -0.101452 5.83603 -1.37627
LeftUpLeg  -1.62441 6.60719 3.97076
LeftLeg  4.35439 -3.95366 0.124702
LeftFoot  -1.19378 0.0781522 -0.827252
LeftToes  -1.45701e-009 4.75788e-011 -4.21586e-011
9
root  16.0555 39.94 3.97738 -71.2586 -88.8709 69.1332
RightUpLeg  -0.809693 -8.18371 -4.7416
RightLeg  5.55916 7.34541 0.0809167
RightFoot  -2.99986 -0.123331 1.43073
RightToes  1.33877e-009 0 -3.6325e-017
Spine  6.93489 -0.63015 2.28917
Spine1  -3.49885 -0.152762 -2.24171
HEad  -7.9733 -4.96461 -4.16753
LeftShoulder1  0.201291 0.982122 0.546883
LeftArm  -22.5594 4.60561 -14.2453
LeftForeArm  -5.87232 1.55995 3.52937
LeftHand  0.0060467 6.24189 4.67156
RightShoulder  0.107256 -1.70447 -3.09427
RightArm  -8.71384 -0.648463 8.96311
RightForeArm  -2.65042 0.31657 -2.47089
RightHand  -0.13203 5.61947 -1.71145
LeftUpLeg  -1.6442 6.64147 4.00955
LeftLeg  4.42717 -3.96099 0.109085
LeftFoot  -1.24914 0.0760413 -0.794444
LeftToes  -1.45701e-009 4.75788e-011 -4.21586e-011
10
root  16.0337 39.9355 3.9817 -70.0765 -88.8561 67.9089
RightUpLeg  -0.744428 -8.20863 -4.76557
RightLeg  5.60032 7.34125 0.0800453
RightFoot  -3.08701 -0.128956 1.518
RightToes  1.33877e-009 0 -3.6325e-017
Spine  6.97438 -0.645919 2.22182
Spine1  -3.55933 -0.188283 -2.11454
HEad  -7.86521 -4.87307 -4.24973
LeftShoulder1  0.201043 0.909027 0.528009
LeftArm  -22.4734 4.77316 -14.1963
LeftForeArm  -5.89463 1.41826 3.46183
LeftHand  0.0261265 6.71114 4.96128
RightShoulder  0.107262 -1.65717 -3.09822
RightArm  -8.73554 -0.799769 8.88402
RightForeArm  -2.65162 0.409722 -2.48809
RightHand  -0.12806 5.65642 -1.66771
LeftUpLeg  -1.55569 6.62682 4.01418
LeftLeg  4.42312 -4.01789 0.119076
LeftFoot  -1.32842 0.0874552 -0.971839
LeftToes  -1.45701e-009 4.75788e-011 -4.21586e-011
11
root  16.0146 39.9343 3.98291 -72.5689 -88.8623 70.415
RightUpLeg  -0.749991 -8.17934 -4.75647
RightLeg  5.62472 7.32931 0.0493663
RightFoot  -3.14769 -0.130493 1.54186
RightToes  1.33877e-009 0 -3.6325e-017
Spine  6.87052 -0.650812 2.15179
Spine1  -3.43088 -0.204497 -2.05937
HEad  -7.92434 -4.62306 -4.19426
LeftShoulder1  0.201431 0.989315 0.451869
LeftArm  -22.3782 4.77173 -14.095
LeftForeArm  -5.86928 1.41285 3.40475
LeftHand  0.0233855 6.67749 4.85367
RightShoulder  0.107486 -1.63986 -3.06724
RightArm  -8.7496 -0.773061 8.83328
RightForeArm  -2.59808 0.407139 -2.4951
RightHand  -0.140564 5.3642 -1.82933
LeftUpLeg  -1.53151 6.64287 4.01411
LeftLeg  4.41454 -3.99722 0.105033
LeftFoot  -1.36918 0.0881187 -0.982152
LeftToes  -1.45701e-009 4.75788e-011 -4.21586e-011
12
root  15.9985 39.942 3.98376 -71.8701 -88.8495 69.7457
RightUpLeg  -0.712024 -8.1656 -4.76578
RightLeg  5.54825 7.32246 0.0322283
RightFoot  -3.12769 -0.128116 1.50497
RightToes  1.33877e-009 0 -3.6325e-017
Spine  6.86626 -0.66082 2.18565
Spine1  -3.48813 -0.205155 -2.13963
HEad  -7.63168 -4.87938 -4.40019
LeftShoulder1  0.202223 0.931975 0.444284
LeftArm  -22.3107 4.79583 -14.0466
LeftForeArm  -5.91073 1.33401 3.34128
LeftHand  0.0364559 6.81106 5.35194
RightShoulder  0.10848 -1.59207 -3.01258
RightArm  -8.84275 -0.87916 8.76863
RightForeArm  -2.51165 0.341836 -2.55557
RightHand  -0.140363 5.49482 -1.81324
LeftUpLeg  -1.5297 6.65916 3.98409
LeftLeg  4.3788 -3.94271 0.0988288
LeftFoot  -1.26671 0.0679419 -0.668567
LeftToes  -1.45701e-009 4.75788e-011 -4.21586e-011
13
root  15.9727 39.9417 3.98624 -72.2937 -88.8665 70.1917
RightUpLeg  -0.680481 -8.14938 -4.75387
RightLeg  5.51072 7.35325 0.0187721
RightFoot  -3.15674 -0.131722 1.56093
RightToes  1.33877e-009 0 -3.6325e-017
Spine  6.71659 -0.668496 2.17949
Spine1  -3.34412 -0.217925 -2.10221
HEad  -7.48316 -4.99863 -4.44328
LeftShoulder1  0.203185 0.953826 0.418748
LeftArm  -22.2577 4.76972 -14.0706
LeftForeArm  -6.04896 1.2901 3.27884
LeftHand  0.0749634 7.56497 5.76289
RightShoulder  0.109574 -1.62898 -3.01737
RightArm  -9.00525 -0.814859 8.83758
RightForeArm  -2.33301 0.269651 -2.62207
RightHand  -0.129244 5.56287 -1.68742
LeftUpLeg  -1.50667 6.6503 3.99052
LeftLeg  4.36888 -3.95093 0.129339
LeftFoot  -1.32635 0.0766247 -0.80351
LeftToes  -1.45701e-009 4.75788e-011 -4.21586e-011
